.
..............................Site Info...........................

 -   http://www.scenetime.com  *_*    

Scenetime .Always on time . friendly online private torrent community ..

     We care to share . Join us on  http://www.scenetime.com 

    Be the first to get new release at  http://www.scenetime.com

        Seed back for speed


...................................NFO:.................................................[img]http://img528.imageshack.us/img528/5112/iceage4heroes.jpg[/img]

Format                           : AVI
Format/Info                      : Audio Video Interleave
File size                        : 749 MiB
Duration                         : 1h 18mn
Overall bit rate                 : 1 329 Kbps

Video
ID                               : 0
Format                           : MPEG-4 Visual
Format profile                   : Advanced Simple@L5
Format settings, BVOP            : 2
Format settings, QPel            : No
Format settings, GMC             : No warppoints
Format settings, Matrix          : Default (H.263)
Muxing mode                      : Packed bitstream
Codec ID                         : XVID
Codec ID/Hint                    : XviD
Duration                         : 1h 18mn
Bit rate                         : 1 124 Kbps
Width                            : 688 pixels
Height                           : 304 pixels
Display aspect ratio             : 2.25:1
Frame rate                       : 23.976 fps
Color space                      : YUV
Chroma subsampling               : 4:2:0
Bit depth                        : 8 bits
Scan type                        : Progressive
Compression mode                 : Lossy
Bits/(Pixel*Frame)               : 0.224
Stream size                      : 634 MiB (85%)
Writing library                  : XviD 64

Audio
ID                               : 1
Format                           : MPEG Audio
Format version                   : Version 1
Format profile                   : Layer 3
Codec ID                         : 55
Codec ID/Hint                    : MP3
Duration                         : 1h 18mn
Bit rate mode                    : Constant
Bit rate                         : 192 Kbps
Channel(s)                       : 2 channels
Sampling rate                    : 44.1 KHz
Compression mode                 : Lossy
Stream size                      : 108 MiB (14%)

Sources                          : V: AOE | A: 26k
 
http://www.imdb.com/title/tt1667889/

Ratings: 6.9/10 from 15,735 users | Metascore: 49/100

Manny, Diego, and Sid embark upon another adventure after their 
continent is set adrift. Using an iceberg as a ship, they encounter 
sea creatures and battle pirates as they explore a new world.

[img]http://img23.imageshack.us/img23/5359/vlcsnap2012073017h41m45.png[/img]
[img]http://img546.imageshack.us/img546/153/vlcsnap2012073017h37m49.png[/img]
[img]http://img33.imageshack.us/img33/3273/vlcsnap2012073017h40m10.png[/img]
[img]http://img513.imageshack.us/img513/4680/vlcsnap2012073017h39m42.png[/img]
[img]http://img507.imageshack.us/img507/1773/vlcsnap2012073017h40m53.png[/img]
[img]http://img37.imageshack.us/img37/1092/vlcsnap2012073017h40m03.png[/img]

Notes: Video contains quite a bit of movement that can cause the
AR to change around a bit every now and again. We did a resize of the video to
try and get it looking as nice as possible in all places. Video has a slight
flicker. Other standard filters were used and tweaked to get the video looking 
sexy as well. Audio was just muxed and synced. Enjoy.

Thanks to that special somebody... ;)